<svg width="1163" height="751" xmlns="http://www.w3.org/2000/svg" xmlns:xlink="http://www.w3.org/1999/xlink" overflow="hidden"><defs><clipPath id="clip0"><rect x="-22" y="9" width="1163" height="751"/></clipPath></defs><g clip-path="url(#clip0)" transform="translate(22 -9)"><path d="M1.71875-1.38752e-06 1.71909 424.128-1.71841 424.128-1.71875 1.38752e-06ZM13.7503 419.545 0.000360892 447.045-13.7497 419.545Z" fill="#404040" fill-rule="nonzero" fill-opacity="1" transform="matrix(1 0 0 -1 81.5 549.545)"/><path d="M1.10747-1.31439 253.459 211.31 251.244 213.939-1.10747 1.31439ZM257.706 199.156 269.876 227.391 239.986 220.187Z" fill="#404040" fill-rule="nonzero" fill-opacity="1" transform="matrix(1 0 0 -1 81.5 549.891)"/><path d="M81.8989 547.828 563.684 662.804 562.886 666.147 81.101 551.172ZM562.019 650.037 585.576 669.795 555.635 676.786Z" fill="#404040" fill-rule="nonzero" fill-opacity="1"/><text fill="#000000" fill-opacity="1" font-family="Latin Modern Math,Latin Modern Math_MSFontService,sans-serif" font-style="normal" font-variant="normal" font-weight="400" font-stretch="normal" font-size="55" text-anchor="start" direction="ltr" writing-mode="lr-tb" unicode-bidi="normal" text-decoration="none" transform="translate(537.42 729)">𝑥</text><path d="M439.232 172.348 581.114 142.005 624.764 346.111 482.883 376.454Z" fill="#9DC3E6" fill-rule="nonzero" fill-opacity="0.623529"/><path d="M581.114 142.005 607.109 101.866 650.76 305.972 624.764 346.111Z" fill="#7E9DB9" fill-rule="evenodd" fill-opacity="0.623529"/><path d="M439.232 172.348 465.228 132.209 607.109 101.866 581.114 142.005Z" fill="#B0CFEB" fill-rule="evenodd" fill-opacity="0.623529"/><path d="M439.232 172.348 465.228 132.209 607.109 101.866 650.76 305.972 624.764 346.111 482.883 376.454ZM439.232 172.348 581.114 142.005 607.109 101.866M581.114 142.005 624.764 346.111" stroke="#595959" stroke-width="3.4375" stroke-linecap="butt" stroke-linejoin="miter" stroke-miterlimit="8" stroke-opacity="1" fill="none" fill-rule="evenodd"/><text fill="#000000" fill-opacity="1" font-family="Latin Modern Math,Latin Modern Math_MSFontService,sans-serif" font-style="normal" font-variant="normal" font-weight="400" font-stretch="normal" font-size="55" text-anchor="start" direction="ltr" writing-mode="lr-tb" unicode-bidi="normal" text-decoration="none" transform="translate(22.1335 147)">𝑧<tspan fill="#000000" fill-opacity="1" font-family="Latin Modern Math,Latin Modern Math_MSFontService,sans-serif" font-style="normal" font-variant="normal" font-weight="400" font-stretch="normal" font-size="55" text-anchor="start" direction="ltr" writing-mode="lr-tb" unicode-bidi="normal" text-decoration="none" x="257.674" y="171">𝑦</tspan></text><path d="M0.685778-1.57601 358.35 154.057 356.979 157.209-0.685778 1.57601ZM358.948 141.196 378.678 164.776 347.975 166.412Z" fill="#0066D9" fill-rule="nonzero" fill-opacity="1" transform="matrix(1 0 0 -1 81.5 549.276)"/><text fill="#0066D9" fill-opacity="1" font-family="Latin Modern Math,Latin Modern Math_MSFontService,sans-serif" font-style="normal" font-variant="normal" font-weight="400" font-stretch="normal" font-size="48" text-anchor="start" direction="ltr" writing-mode="lr-tb" unicode-bidi="normal" text-decoration="none" transform="translate(480.082 433)">(<tspan fill="#0066D9" fill-opacity="1" font-family="Latin Modern Math,Latin Modern Math_MSFontService,sans-serif" font-style="normal" font-variant="normal" font-weight="400" font-stretch="normal" font-size="48" text-anchor="start" direction="ltr" writing-mode="lr-tb" unicode-bidi="normal" text-decoration="none" x="18.9062" y="0">𝑥</tspan><tspan fill="#0066D9" fill-opacity="1" font-family="Latin Modern Math,Latin Modern Math_MSFontService,sans-serif" font-style="normal" font-variant="normal" font-weight="400" font-stretch="normal" font-size="48" text-anchor="start" direction="ltr" writing-mode="lr-tb" unicode-bidi="normal" text-decoration="none" x="46.4063" y="0">,</tspan><tspan fill="#0066D9" fill-opacity="1" font-family="Latin Modern Math,Latin Modern Math_MSFontService,sans-serif" font-style="normal" font-variant="normal" font-weight="400" font-stretch="normal" font-size="48" text-anchor="start" direction="ltr" writing-mode="lr-tb" unicode-bidi="normal" text-decoration="none" x="67.6042" y="0">𝑦</tspan><tspan fill="#0066D9" fill-opacity="1" font-family="Latin Modern Math,Latin Modern Math_MSFontService,sans-serif" font-style="normal" font-variant="normal" font-weight="400" font-stretch="normal" font-size="48" text-anchor="start" direction="ltr" writing-mode="lr-tb" unicode-bidi="normal" text-decoration="none" x="91.7583" y="0">,</tspan><tspan fill="#0066D9" fill-opacity="1" font-family="Latin Modern Math,Latin Modern Math_MSFontService,sans-serif" font-style="normal" font-variant="normal" font-weight="400" font-stretch="normal" font-size="48" text-anchor="start" direction="ltr" writing-mode="lr-tb" unicode-bidi="normal" text-decoration="none" x="112.956" y="0">𝑧</tspan><tspan fill="#0066D9" fill-opacity="1" font-family="Latin Modern Math,Latin Modern Math_MSFontService,sans-serif" font-style="normal" font-variant="normal" font-weight="400" font-stretch="normal" font-size="48" text-anchor="start" direction="ltr" writing-mode="lr-tb" unicode-bidi="normal" text-decoration="none" x="136.01" y="0">)</tspan></text><path d="M574.472 47.6751C617.155 53.4299 656.129 73.7242 684.037 104.728L670.41 115.644C645.245 88.055 610.205 70.0181 571.86 64.9161Z" fill="#8EBE6E" fill-rule="evenodd" fill-opacity="1"/><path d="M579.348 81.4036 540.972 51.316 587.543 36.8536Z" fill="#8EBE6E" fill-rule="evenodd" fill-opacity="1"/><path d="M683.563 79.1187 690.842 127.165 645.643 114.408Z" fill="#8EBE6E" fill-rule="evenodd" fill-opacity="1"/><path d="M656.153 32.3765C648.324 58.491 635.669 82.8895 618.852 104.289L606.203 94.2214C621.745 74.4229 633.442 51.8528 640.678 27.697Z" fill="#8EBE6E" fill-rule="evenodd" fill-opacity="1"/><path d="M621.146 39.0439 650.13 10.3124 665.73 49.8298Z" fill="#8EBE6E" fill-rule="evenodd" fill-opacity="1"/><path d="M469 376.5C469 369.596 474.596 364 481.5 364 488.404 364 494 369.596 494 376.5 494 383.404 488.404 389 481.5 389 474.596 389 469 383.404 469 376.5Z" fill="#0066D9" fill-rule="evenodd" fill-opacity="1"/><text fill="#0066D9" fill-opacity="1" font-family="Yu Gothic Medium,Yu Gothic Medium_MSFontService,sans-serif" font-style="normal" font-variant="normal" font-weight="700" font-stretch="normal" font-size="41" text-anchor="start" direction="ltr" writing-mode="lr-tb" unicode-bidi="normal" text-decoration="none" transform="matrix(1 0 0 1 323.667 496)">①<tspan fill="#0066D9" fill-opacity="1" font-family="Yu Gothic Medium,Yu Gothic Medium_MSFontService,sans-serif" font-style="normal" font-variant="normal" font-weight="700" font-stretch="normal" font-size="41" text-anchor="start" direction="ltr" writing-mode="lr-tb" unicode-bidi="normal" text-decoration="none" x="53.2813" y="0">位置</tspan><tspan fill="#319932" fill-opacity="1" font-family="Yu Gothic Medium,Yu Gothic Medium_MSFontService,sans-serif" font-style="normal" font-variant="normal" font-weight="700" font-stretch="normal" font-size="41" text-anchor="start" direction="ltr" writing-mode="lr-tb" unicode-bidi="normal" text-decoration="none" x="376.457" y="-428">②</tspan><tspan fill="#319932" fill-opacity="1" font-family="Yu Gothic Medium,Yu Gothic Medium_MSFontService,sans-serif" font-style="normal" font-variant="normal" font-weight="700" font-stretch="normal" font-size="41" text-anchor="start" direction="ltr" writing-mode="lr-tb" unicode-bidi="normal" text-decoration="none" x="429.738" y="-428">回転</tspan></text><path d="M590 238 716.854 269.485" stroke="#404040" stroke-width="2.29167" stroke-linecap="butt" stroke-linejoin="miter" stroke-miterlimit="8" stroke-opacity="1" fill="none" fill-rule="evenodd"/><text fill="#404040" fill-opacity="1" font-family="Yu Gothic Medium,Yu Gothic Medium_MSFontService,sans-serif" font-style="normal" font-variant="normal" font-weight="700" font-stretch="normal" font-size="41" text-anchor="start" direction="ltr" writing-mode="lr-tb" unicode-bidi="normal" text-decoration="none" transform="matrix(1 0 0 1 729.888 300)">③<tspan fill="#404040" fill-opacity="1" font-family="Yu Gothic Medium,Yu Gothic Medium_MSFontService,sans-serif" font-style="normal" font-variant="normal" font-weight="700" font-stretch="normal" font-size="41" text-anchor="start" direction="ltr" writing-mode="lr-tb" unicode-bidi="normal" text-decoration="none" x="53.2813" y="0">変形</tspan><tspan fill="#404040" fill-opacity="1" font-family="Yu Gothic Medium,Yu Gothic Medium_MSFontService,sans-serif" font-style="normal" font-variant="normal" font-weight="700" font-stretch="normal" font-size="41" text-anchor="start" direction="ltr" writing-mode="lr-tb" unicode-bidi="normal" text-decoration="none" x="0" y="50">（今回は考えない）</tspan></text><text fill="#404040" fill-opacity="1" font-family="Yu Gothic Medium,Yu Gothic Medium_MSFontService,sans-serif" font-style="normal" font-variant="normal" font-weight="700" font-stretch="normal" font-size="37" text-anchor="start" direction="ltr" writing-mode="lr-tb" unicode-bidi="normal" text-decoration="none" transform="matrix(0.979114 -0.203313 0.203313 0.979114 483.011 288)">MINE</text><path d="M437.766 168.534 580.408 138.028 592.789 195.924 450.148 226.43Z" fill="#FFFFFF" fill-rule="nonzero" fill-opacity="1"/><path d="M580.408 138.028 605.806 98.8118 618.187 156.708 592.789 195.924Z" fill="#CDCDCD" fill-rule="evenodd" fill-opacity="1"/><path d="M437.766 168.534 463.164 129.317 605.806 98.8118 580.408 138.028Z" fill="#FFFFFF" fill-rule="evenodd" fill-opacity="1"/><path d="M437.766 168.534 463.164 129.317 605.806 98.8118 618.187 156.708 592.789 195.924 450.148 226.43ZM437.766 168.534 580.408 138.028 605.806 98.8118M580.408 138.028 592.789 195.924" stroke="#595959" stroke-width="3.4375" stroke-linecap="butt" stroke-linejoin="miter" stroke-miterlimit="8" stroke-opacity="1" fill="none" fill-rule="evenodd"/><path d="M629.805 112.047 585.913 126.734 595.567 85.993Z" fill="#74B04B" fill-rule="evenodd" fill-opacity="0.901961"/></g></svg>